<svg xmlns="http://www.w3.org/2000/svg" viewBox="0 0 1200 800" role="img" aria-labelledby="title desc">
  <title id="title">Showcase website illustration</title>
  <desc id="desc">Colorful layout illustration for a responsive showcase website.</desc>
  <defs>
    <linearGradient id="bg" x1="0" y1="0" x2="1" y2="1">
      <stop offset="0%" stop-color="#0f172a" />
      <stop offset="50%" stop-color="#111827" />
      <stop offset="100%" stop-color="#f97316" />
    </linearGradient>
    <linearGradient id="panel" x1="0" y1="0" x2="1" y2="0">
      <stop offset="0%" stop-color="#fbbf24" />
      <stop offset="100%" stop-color="#f97316" />
    </linearGradient>
    <linearGradient id="accent" x1="0" y1="0" x2="1" y2="0">
      <stop offset="0%" stop-color="#34d399" />
      <stop offset="100%" stop-color="#10b981" />
    </linearGradient>
    <filter id="shadow" x="-20%" y="-20%" width="140%" height="140%">
      <feDropShadow dx="0" dy="24" stdDeviation="24" flood-color="#0f172a" flood-opacity="0.35" />
    </filter>
  </defs>
  <rect width="1200" height="800" fill="url(#bg)" />
  <g filter="url(#shadow)">
    <rect x="140" y="140" width="920" height="520" rx="32" fill="#0b1221" stroke="#1f2937" stroke-width="2" />
    <rect x="140" y="140" width="920" height="90" rx="28" fill="#111827" />
    <circle cx="186" cy="186" r="12" fill="#f43f5e" />
    <circle cx="226" cy="186" r="12" fill="#f59e0b" />
    <circle cx="266" cy="186" r="12" fill="#22c55e" />
    <rect x="220" y="260" width="320" height="280" rx="22" fill="url(#panel)" />
    <rect x="580" y="260" width="420" height="80" rx="18" fill="#111827" stroke="#1f2937" stroke-width="2" />
    <rect x="580" y="360" width="420" height="80" rx="18" fill="#111827" stroke="#1f2937" stroke-width="2" />
    <rect x="580" y="460" width="420" height="80" rx="18" fill="#111827" stroke="#1f2937" stroke-width="2" />
    <rect x="620" y="285" width="200" height="16" rx="8" fill="#f8fafc" opacity="0.9" />
    <rect x="620" y="310" width="140" height="14" rx="7" fill="#f8fafc" opacity="0.6" />
    <rect x="620" y="385" width="260" height="16" rx="8" fill="#f8fafc" opacity="0.9" />
    <rect x="620" y="410" width="180" height="14" rx="7" fill="#f8fafc" opacity="0.6" />
    <rect x="620" y="485" width="220" height="16" rx="8" fill="#f8fafc" opacity="0.9" />
    <rect x="620" y="510" width="150" height="14" rx="7" fill="#f8fafc" opacity="0.6" />
    <rect x="260" y="570" width="220" height="26" rx="13" fill="url(#accent)" />
    <rect x="510" y="570" width="180" height="26" rx="13" fill="#22d3ee" />
  </g>
  <text x="180" y="700" fill="#f8fafc" font-family="'Segoe UI', 'Helvetica Neue', Arial, sans-serif" font-size="28" font-weight="700">Responsive showcase site</text>
  <text x="180" y="735" fill="#cbd5e1" font-family="'Segoe UI', 'Helvetica Neue', Arial, sans-serif" font-size="22">HTML · CSS · JS · SEO</text>
  <g opacity="0.28">
    <circle cx="1080" cy="120" r="90" fill="#f97316" />
    <circle cx="120" cy="120" r="70" fill="#22d3ee" />
    <circle cx="1040" cy="700" r="120" fill="#34d399" />
  </g>
</svg>
