<svg xmlns="http://www.w3.org/2000/svg" viewBox="0 0 1200 800" role="img" aria-labelledby="title desc">
  <title id="title">Automation scripts illustration</title>
  <desc id="desc">Gradient illustration showing terminal windows for PowerShell and Python automation scripts.</desc>
  <defs>
    <linearGradient id="bg" x1="0" y1="0" x2="1" y2="1">
      <stop offset="0%" stop-color="#0f172a" />
      <stop offset="50%" stop-color="#1e293b" />
      <stop offset="100%" stop-color="#0ea5e9" />
    </linearGradient>
    <linearGradient id="accent" x1="0" y1="0" x2="1" y2="0">
      <stop offset="0%" stop-color="#22d3ee" />
      <stop offset="100%" stop-color="#8b5cf6" />
    </linearGradient>
    <linearGradient id="accent2" x1="0" y1="0" x2="1" y2="0">
      <stop offset="0%" stop-color="#f59e0b" />
      <stop offset="100%" stop-color="#f97316" />
    </linearGradient>
    <filter id="shadow" x="-20%" y="-20%" width="140%" height="140%">
      <feDropShadow dx="0" dy="24" stdDeviation="24" flood-color="#0f172a" flood-opacity="0.35" />
    </filter>
  </defs>
  <rect width="1200" height="800" fill="url(#bg)" />
  <g filter="url(#shadow)">
    <rect x="120" y="140" width="480" height="280" rx="22" fill="#0b1221" stroke="#1f2937" stroke-width="2" />
    <rect x="120" y="140" width="480" height="64" rx="20" fill="#111827" />
    <circle cx="156" cy="172" r="10" fill="#f43f5e" />
    <circle cx="190" cy="172" r="10" fill="#f59e0b" />
    <circle cx="224" cy="172" r="10" fill="#22c55e" />
    <rect x="172" y="240" width="320" height="16" rx="8" fill="#1f2937" />
    <rect x="172" y="270" width="260" height="16" rx="8" fill="#1f2937" />
    <rect x="172" y="300" width="320" height="16" rx="8" fill="#22d3ee" />
    <rect x="172" y="330" width="210" height="16" rx="8" fill="#1f2937" />
    <rect x="172" y="360" width="320" height="16" rx="8" fill="#8b5cf6" />
  </g>
  <g filter="url(#shadow)">
    <rect x="600" y="260" width="460" height="320" rx="26" fill="#0b1221" stroke="#1f2937" stroke-width="2" />
    <rect x="600" y="260" width="460" height="70" rx="22" fill="#111827" />
    <rect x="650" y="358" width="360" height="26" rx="13" fill="url(#accent)" />
    <rect x="650" y="398" width="300" height="22" rx="11" fill="#1f2937" />
    <rect x="650" y="434" width="360" height="22" rx="11" fill="#1f2937" />
    <rect x="650" y="470" width="220" height="22" rx="11" fill="#1f2937" />
    <rect x="650" y="506" width="320" height="22" rx="11" fill="url(#accent2)" />
    <rect x="650" y="542" width="260" height="22" rx="11" fill="#1f2937" />
  </g>
  <rect x="180" y="500" width="240" height="120" rx="18" fill="#111827" stroke="#1f2937" stroke-width="2" />
  <text x="202" y="542" fill="#22d3ee" font-family="'Segoe UI', 'Helvetica Neue', Arial, sans-serif" font-size="26" font-weight="700">Automation</text>
  <text x="202" y="578" fill="#cbd5e1" font-family="'Segoe UI', 'Helvetica Neue', Arial, sans-serif" font-size="22">PowerShell · Python</text>
  <g opacity="0.28">
    <circle cx="1040" cy="140" r="90" fill="#22d3ee" />
    <circle cx="160" cy="200" r="60" fill="#8b5cf6" />
    <circle cx="340" cy="660" r="90" fill="#f59e0b" />
  </g>
</svg>
